<svg width="37" height="29" viewBox="0 0 37 29" fill="none" xmlns="http://www.w3.org/2000/svg">
<path d="M11.3893 19.571C11.914 19.3985 12.115 19.0534 12.1554 18.7944C12.115 18.4489 11.9282 18.309 11.8673 17.6809C11.7961 16.9498 12.3667 15.2007 12.5363 14.8887C12.5132 14.829 12.4894 14.7762 12.4666 14.7149C11.6715 14.1753 10.8617 13.1996 10.4895 11.4359C10.2905 10.493 10.4551 9.52943 10.9318 8.70797C10.9318 8.70797 10.3925 4.68253 11.152 2.05348C10.4425 1.68812 9.66985 1.74966 8.61087 1.86284C7.79818 1.94988 7.68284 2.13465 7.05861 2.03778C6.34325 1.92654 5.76274 1.69423 5.58815 1.60069C5.48756 1.54704 4.54399 2.44256 4.2813 3.17388C3.44801 5.49054 3.67174 7.07881 3.88384 8.28054C3.87676 8.40361 3.86765 8.52622 3.86765 8.65061L4.06132 9.53083C4.06205 9.5401 4.06132 9.54876 4.06161 9.55757C3.63944 9.96266 3.38499 10.5483 3.51933 11.1848C3.79596 12.4939 4.39158 13.0249 4.97809 13.2548C5.36709 14.4288 5.74453 15.1701 6.18499 15.6685C6.29635 16.2118 6.39471 16.9495 6.32345 17.681C6.02615 20.7447 0 19.1309 0 24.5096C0 25.2141 1.87536 26.3633 6.41848 26.6943C6.40518 26.5905 6.39608 26.4859 6.39608 26.379C6.39608 21.5555 9.32717 20.2499 11.3893 19.571Z" fill="#CCCCCC"/>
<path d="M30.6768 17.6809C30.6056 16.9498 30.7036 16.2124 30.815 15.6701C31.2562 15.1708 31.6336 14.4291 32.0228 13.2545C32.609 13.0244 33.2043 12.4932 33.4806 11.1847C33.6086 10.582 33.3872 10.0246 33.0044 9.62311C33.2818 8.62864 34.3724 4.02084 31.0967 3.08636C30.0074 1.62997 29.0547 1.68811 27.4205 1.86282C26.6078 1.94987 26.4923 2.13463 25.8685 2.03777C25.7319 2.01651 25.6024 1.98999 25.4775 1.9617C25.5973 2.13641 25.7115 2.317 25.8126 2.50996C26.9061 4.59979 26.6173 7.24655 26.2737 8.86319C26.6835 9.65249 26.8175 10.5596 26.6324 11.4363C26.2602 13.1989 25.4507 14.1745 24.6561 14.7142C24.6163 14.8211 24.4991 15.0399 24.6604 15.2558C24.8078 15.5113 24.8341 15.4869 24.9948 15.6684C25.106 16.2117 25.2042 16.9494 25.1328 17.6809C25.0741 18.2877 24.0957 18.7944 24.3716 19.0396C24.6431 19.1618 24.9579 19.2896 25.3111 19.4283C27.3363 20.2238 30.7258 21.5555 30.7258 26.379C30.7258 26.4827 30.7174 26.5845 30.7048 26.6851C35.159 26.3429 37 25.2077 37 24.5096C37 19.1308 30.974 20.7447 30.6768 17.6809Z" fill="#CCCCCC"/>
<path d="M21.7521 18.5166C21.6701 17.6751 21.7833 16.8261 21.9111 16.2008C22.419 15.6269 22.854 14.7725 23.3018 13.4202C23.9768 13.1553 24.6623 12.5439 24.9806 11.0371C25.1271 10.3432 24.8726 9.70159 24.4324 9.23929C24.7512 8.09438 26.0067 2.78904 22.2356 1.71324C20.9815 0.0363017 19.8842 0.103327 18.003 0.304556C17.0671 0.404591 16.9341 0.617494 16.2158 0.505786C15.392 0.377688 14.7238 0.110207 14.5228 0.00267335C14.407 -0.059404 13.3205 0.971946 13.0178 1.81382C12.0588 4.4809 12.3165 6.30991 12.5603 7.69347C12.5523 7.83517 12.5413 7.97625 12.5413 8.1195L12.7647 9.133C12.7654 9.14343 12.7647 9.15341 12.765 9.16384C12.2789 9.63 11.9862 10.3043 12.1409 11.0371C12.459 12.5445 13.145 13.1557 13.8202 13.4204C14.2682 14.7721 14.7024 15.6262 15.21 16.2C15.3381 16.8249 15.4513 17.6747 15.3693 18.5166C15.0269 22.0438 8.08899 20.1859 8.08899 26.3791C8.08899 27.3343 11.0808 29 18.5607 29C26.0406 29 29.0324 27.3343 29.0324 26.3791C29.0324 20.1858 22.0945 22.0438 21.7521 18.5166ZM17.3464 27.9748L15.4476 19.724L17.7835 20.764L17.6579 21.9715L18.029 21.9628L17.3464 27.9748ZM19.9603 27.9748L19.2776 21.9628L19.6487 21.9715L19.5231 20.764L21.859 19.724L19.9603 27.9748Z" fill="#CCCCCC"/>
</svg>
