<svg fill="none" viewBox="0 0 144 44" xmlns="http://www.w3.org/2000/svg" xmlns:xlink="http://www.w3.org/1999/xlink"><clipPath id="a"><path d="m0 0h144v44h-144z"/></clipPath><g clip-path="url(#a)"><path d="m4.77402 31.0069h8.15158c-.4547-1.2512-1.2504-2.1976-2.387-2.8392-1.13671-.6416-2.50071-.9625-4.07581-.9625-.74696 0-1.51015.1284-2.28958.369s-1.51015.6256-2.20839 1.1228l-1.818677-3.5129c.698241-.6096 1.656297-1.1549 2.922867-1.6362 1.25034-.4812 2.77673-.7378 4.54669-.7378 1.49391 0 2.8904.2566 4.157.7539 1.2665.5133 2.387 1.2191 3.3126 2.1494.9418.9304 1.6725 2.0372 2.1921 3.3365s.7794 2.743.7794 4.3471-.2598 3.1119-.7632 4.4273c-.5196 1.3153-1.2503 2.4221-2.2246 3.3365-.9743.9143-2.1272 1.6041-3.4912 2.0853s-2.89038.7379-4.59539.7379c-.74696 0-1.47767-.0642-2.17591-.1765-.69825-.1123-1.36401-.2727-1.96482-.4652-.61705-.1925-1.15291-.417-1.64006-.6737-.487141-.2566-.876857-.5293-1.20162-.8181l2.01353-3.946c.53586.4491 1.21786.8501 2.06225 1.187.84438.3369 1.7862.5133 2.82544.5133.69824 0 1.364-.0802 2.01353-.2406s1.25035-.401 1.80245-.7379c.5521-.3368 1.0392-.7699 1.4452-1.2993.4222-.5293.7145-1.171.9256-1.9249h-8.31398zm15.31258-7.8279h4.7416v8.9187l6.7875-8.9187h5.6834l-7.7944 9.4481 8.4114 11.02h-6.0081l-7.0798-9.7368v9.7368h-4.7416z" fill="#509e2f"/><path d="m35.659 33.4131c0-1.4758.2598-2.8713.7957-4.1546.5358-1.2833 1.2828-2.4061 2.2408-3.3686.9581-.9464 2.111-1.7003 3.4588-2.2457 1.3477-.5454 2.8579-.8181 4.5142-.8181s3.0365.2406 4.3843.7379c1.3477.4812 2.5007 1.187 3.4912 2.1013.9905.9144 1.7537 2.0372 2.3058 3.3365s.8281 2.7751.8281 4.4113c0 1.6361-.276 2.9836-.8281 4.2829s-1.3153 2.4061-2.3058 3.3525c-.9905.9304-2.1597 1.6682-3.4912 2.1816-1.3478.5133-2.8092.7699-4.3843.7699s-3.0366-.2406-4.3843-.7379c-1.3478-.4812-2.5007-1.187-3.4912-2.1013-.9906-.9143-1.7538-2.0212-2.3059-3.3365-.5521-1.2993-.8281-2.7751-.8281-4.4112zm5.0338 0c0 .8822.1624 1.7003.4709 2.4542.3086.7539.747 1.4116 1.2666 1.973.5359.5615 1.1692.9946 1.8999 1.2993.7307.3048 1.5101.4652 2.3383.4652.9905 0 1.8511-.1604 2.5981-.4812.7469-.3208 1.364-.7539 1.8674-1.3154.5033-.5614.8768-1.2191 1.1366-1.973s.3898-1.572.3898-2.4221c0-.9304-.1462-1.7806-.4547-2.5505-.3085-.754-.7307-1.4116-1.2666-1.957s-1.1854-.9625-1.9161-1.2512-1.5101-.4331-2.3383-.4331c-.8769 0-1.6725.1444-2.4032.4331-.7308.2887-1.364.7058-1.8999 1.2512s-.9418 1.203-1.2503 1.957c-.2923.7539-.4385 1.6041-.4385 2.5505zm31.3072 1.989h-7.5507v8.245h-4.7416v-20.4681h4.7416v7.8279h7.5507v-7.8279h4.7415v20.4681h-4.7415z" fill="#509e2f"/><path d="m79.1123 43.6471v-20.4681h4.7253v12.7204l9.1908-12.7204h4.1407v20.4681h-4.7415v-12.7204l-9.1746 12.7204z" fill="#215732"/><path d="m121.64 23.179h4.238l8.606 20.4842h-5.033l-1.722-4.299h-8.232l-1.722 4.299h-4.741zm-.357 11.79h4.66l-2.322-5.7907zm-101.1964-34.616095h15.7023v4.395185h-10.9607v3.59315h10.0676v4.37916h-10.0676v3.7215h11.253v4.3951h-15.9946zm18.4466 0h4.7415v8.918705l6.7713-8.918705h5.6834l-7.7781 9.448045 8.4114 11.03605h-6.0244l-7.0636-9.7528v9.7528h-4.7415z" fill="#509e2f"/><path d="m54.8525 10.5869c0-1.47571.2598-2.87126.7957-4.15453.5358-1.28326 1.2828-2.40612 2.2408-3.36857.9581-.96245 2.111-1.70033 3.4588-2.245718 1.3477-.545388 2.8579-.818082 4.5142-.818082s3.0365.240612 4.3843.737878c1.3478.481222 2.5007 1.187022 3.4912 2.101352.9905.91432 1.7537 2.03718 2.3058 3.33649s.8282 2.77506.8282 4.41118c0 1.6362-.2761 2.9836-.8282 4.283-.5521 1.2993-1.3153 2.4061-2.3058 3.3525-.9905.9304-2.1597 1.6682-3.4912 2.1815-1.3478.5133-2.8092.77-4.3843.77s-3.0366-.2406-4.3843-.7379c-1.3478-.4812-2.5007-1.187-3.4912-2.1013-.9906-.9144-1.7537-2.0212-2.3058-3.3365-.5521-1.2993-.8282-2.7751-.8282-4.4113zm5.0338 0c0 .8823.1624 1.7004.4709 2.4543.3086.7539.747 1.4116 1.2666 1.973.5359.5614 1.1692.9945 1.8999 1.2993s1.5101.4652 2.3383.4652c.9905 0 1.8511-.1604 2.5981-.4812.7469-.3208 1.364-.7539 1.8674-1.3154.5034-.5614.8768-1.2191 1.1366-1.973.2599-.7539.3898-1.572.3898-2.4222 0-.93032-.1462-1.78048-.4547-2.55044-.3085-.75392-.7307-1.4116-1.2666-1.95699-.5358-.54538-1.1854-.96245-1.9161-1.25118s-1.5101-.4331-2.3383-.4331c-.8768 0-1.6725.14437-2.4032.4331s-1.364.7058-1.8999 1.25118c-.5359.54539-.9418 1.20307-1.2503 1.95699-.2923.75392-.4385 1.60408-.4385 2.55044z" fill="#509e2f"/><path d="m93.3856 20.837-9.8403-12.28723v12.28723h-4.433v-20.484095h3.7835l9.8403 12.351395v-12.351395h4.433v20.484095z" fill="#215732"/><path d="m104.281.352905h-4.7411v20.484095h4.7411zm26.875 0h4.238l8.606 20.484095h-5.034l-1.721-4.2989h-8.233l-1.721 4.2989h-4.742zm-.358 11.789995h4.661l-2.322-5.79072zm-7.94-11.789995-6.073 14.452795-6.089-14.452795h-5.051l8.607 20.484095h5.066l8.606-20.484095zm-23.3181 22.874195c.2923-.016.6821-.0321 1.1531-.0642.471-.016.99-.032 1.575-.0641.568-.0161 1.169-.0321 1.77-.0481h1.77c1.25 0 2.306.1283 3.183.401.876.2566 1.607.6256 2.159 1.0908.569.4651.974.9945 1.234 1.6201s.39 1.2832.39 1.989c0 1.0748-.195 1.9731-.601 2.7109-.406.7379-.99 1.3475-1.77 1.8608v.0641c.374.1444.747.3369 1.088.5936.357.2566.666.5774.942.9624s.503.8341.666 1.3474c.162.5133.26 1.1069.26 1.7645 0 1.0748-.195 2.0051-.601 2.7911-.39.786-.942 1.4437-1.657 1.9731-.714.5293-1.542.9143-2.5 1.1709-.958.2567-1.997.385-3.118.385h-1.591c-.569 0-1.137-.016-1.673-.0321-.536 0-1.055-.032-1.526-.0481-.471-.016-.8608-.0481-1.1531-.0962zm6.2191 4.2187c-.292 0-.552 0-.747.0321-.211.0161-.454.0482-.731.0802v3.7215h1.576c.617 0 1.136-.1444 1.558-.4331.423-.2887.634-.802.634-1.556 0-.6255-.244-1.0907-.715-1.3955s-.99-.4492-1.575-.4492zm-1.478 7.9242v3.8338c.163.0321.358.0802.585.1123.227.032.568.0641 1.023.0641.926 0 1.624-.1925 2.079-.5614.454-.385.682-.9143.682-1.6041 0-.6416-.228-1.1068-.682-1.4116-.455-.2887-1.072-.4331-1.835-.4331z" fill="#509e2f"/></g></svg>