<svg width="93" height="108" viewBox="0 0 93 108" fill="none" xmlns="http://www.w3.org/2000/svg">
<path d="M46.3804 60.9095C53.8318 60.9095 71.351 51.9419 71.351 30.4544C71.3513 13.6349 69.0808 0 46.3804 0C23.6804 0 21.4099 13.6349 21.4099 30.4547C21.4099 51.9419 38.9291 60.9095 46.3804 60.9095ZM25.1419 25.372C26.896 21.9798 30.6901 18.0597 38.8497 18.2336C38.8497 18.2336 43.7131 30.0304 67.5896 24.7327C67.686 26.6171 67.7162 28.5398 67.7162 30.4547C67.7162 40.9577 63.0786 47.4655 59.1878 51.0752C54.2855 55.6239 48.8427 57.2747 46.3804 57.2747C43.9182 57.2747 38.4753 55.6239 33.573 51.0752C29.6823 47.4655 25.0446 40.9577 25.0446 30.4547C25.0449 28.7557 25.0697 27.0507 25.1419 25.372Z" fill="#11740D"/>
<path d="M92.7389 92.1429C91.4642 84.2158 88.8395 74.0051 83.5755 70.3765C79.9809 67.8982 67.4395 61.1976 62.0841 58.3363L61.9914 58.2869C61.3792 57.9598 60.6318 58.0253 60.0857 58.454C57.2803 60.6565 54.2071 62.1409 50.9516 62.8658C50.3765 62.994 49.9046 63.4026 49.6955 63.9533L46.3804 72.6915L43.0654 63.9533C42.8563 63.4026 42.3843 62.994 41.8092 62.8658C38.5538 62.1409 35.4806 60.6565 32.6751 58.454C32.1291 58.0253 31.3816 57.9595 30.7694 58.2869C25.4776 61.1146 12.7827 67.9516 9.20107 70.3657C3.14144 74.448 0.491683 89.2225 0.022208 92.1429C-0.0244307 92.4326 0.00274953 92.7288 0.100351 93.0052C0.317174 93.6174 5.8786 108 46.3804 108C86.8822 108 92.4437 93.6174 92.6605 93.0052C92.7584 92.7288 92.7856 92.4323 92.7389 92.1429ZM74.0754 87.3057L66.1478 89.7766L58.2201 87.3057V83.0403H74.0754V87.3057Z" fill="#11740D"/>
</svg>
