<svg width="88" height="108" viewBox="0 0 88 108" fill="none" xmlns="http://www.w3.org/2000/svg">
<path fill-rule="evenodd" clip-rule="evenodd" d="M0 14.7753V91.5486C0 100.635 7.36558 108 16.4514 108H71.2895C80.3757 108 87.741 100.635 87.741 91.5486V36.7105C87.741 27.6247 80.3757 20.2591 71.2895 20.2591H5.48381C2.45521 20.2591 0 17.8039 0 14.7753ZM17.8224 53.1619C17.8224 50.8905 19.6638 49.0491 21.9352 49.0491H65.8057C68.0771 49.0491 69.9186 50.8905 69.9186 53.1619C69.9186 55.4333 68.0771 57.2748 65.8057 57.2748H21.9352C19.6638 57.2748 17.8224 55.4333 17.8224 53.1619ZM17.8224 72.3553C17.8224 70.0839 19.6638 68.2424 21.9352 68.2424H52.0962C54.3676 68.2424 56.2091 70.0839 56.2091 72.3553C56.2091 74.6267 54.3676 76.4681 52.0962 76.4681H21.9352C19.6638 76.4681 17.8224 74.6267 17.8224 72.3553Z" fill="#11740D"/>
<path d="M2.24176 9.76906C4.15276 10.6261 5.48384 12.5452 5.48384 14.7752H71.2896C73.1831 14.7752 75.0208 15.0151 76.7734 15.4663V10.9697C76.7734 4.29534 70.8618 -0.831587 64.2549 0.112287L5.04289 8.57112C3.98742 8.72192 3.03099 9.14741 2.24176 9.76906Z" fill="#11740D"/>
</svg>
