<svg width="117" height="108" viewBox="0 0 117 108" fill="none" xmlns="http://www.w3.org/2000/svg">
<path d="M32.3856 43.5282C31.1543 43.5282 29.9087 43.5282 28.6488 43.5282C23.5494 43.3439 18.4665 44.2096 13.7156 46.0715C8.96467 47.9335 4.64711 50.752 1.03084 54.352L0 55.5547V91.1188H17.5243V70.9314L19.8867 68.2684L20.9605 67.0228C26.5525 61.278 33.5143 57.0507 41.1907 54.7386C37.3474 51.8142 34.3162 47.955 32.3856 43.5282Z" fill="#11740D"/>
<path d="M115.454 54.2231C111.838 50.623 107.521 47.8046 102.77 45.9426C98.0187 44.0807 92.9358 43.215 87.8364 43.3993C86.2724 43.4037 84.7097 43.4897 83.1546 43.657C81.1878 47.81 78.2395 51.4218 74.5643 54.1802C82.7594 56.4474 90.1832 60.9017 96.0402 67.0657L97.114 68.2684L99.4334 70.9314V91.1616H116.356V55.4258L115.454 54.2231Z" fill="#11740D"/>
<path d="M28.52 35.1525C28.9925 35.1525 29.379 35.1525 29.8515 35.1525C29.2328 29.8405 30.1649 24.4628 32.5353 19.6688C34.9056 14.8748 38.6128 10.8693 43.2095 8.13589C41.5432 5.59036 39.2445 3.52119 36.5383 2.13101C33.832 0.74083 30.8112 0.0773037 27.7715 0.2054C24.7318 0.333496 21.7775 1.24882 19.1978 2.86175C16.6182 4.47468 14.5016 6.72992 13.0554 9.40662C11.6093 12.0833 10.883 15.0897 10.9479 18.1314C11.0127 21.1731 11.8664 24.1458 13.4253 26.7585C14.9842 29.3711 17.1949 31.5342 19.8409 33.0357C22.487 34.5373 25.4776 35.3259 28.52 35.3244V35.1525Z" fill="#11740D"/>
<path d="M85.7747 31.9312C85.8268 32.9184 85.8268 33.9077 85.7747 34.8949C86.5989 35.0255 87.4314 35.0973 88.2659 35.1096H89.0819C92.111 34.9481 95.0465 34.005 97.6029 32.3722C100.159 30.7394 102.249 28.4725 103.669 25.7922C105.09 23.1118 105.792 20.1095 105.707 17.0773C105.622 14.0452 104.754 11.0866 103.187 8.48964C101.619 5.89268 99.4061 3.74582 96.7627 2.25809C94.1193 0.770346 91.1357 -0.00757504 88.1024 5.56002e-05C85.069 0.00768624 82.0894 0.80061 79.4535 2.30163C76.8176 3.80265 74.6153 5.96061 73.0609 8.56543C76.9484 11.1036 80.145 14.5671 82.364 18.6452C84.583 22.7233 85.7549 27.2885 85.7747 31.9312Z" fill="#11740D"/>
<path d="M57.5983 51.1735C68.2018 51.1735 76.7977 42.5776 76.7977 31.9741C76.7977 21.3705 68.2018 12.7747 57.5983 12.7747C46.9947 12.7747 38.3988 21.3705 38.3988 31.9741C38.3988 42.5776 46.9947 51.1735 57.5983 51.1735Z" fill="#11740D"/>
<path d="M58.6292 61.396C53.0199 61.1696 47.4227 62.0802 42.1745 64.0732C36.9263 66.0662 32.1355 69.1003 28.0905 72.993L27.0167 74.1957V101.384C27.0334 102.27 27.2245 103.143 27.579 103.955C27.9334 104.767 28.4443 105.501 29.0825 106.115C29.7207 106.729 30.4737 107.212 31.2984 107.535C32.1231 107.858 33.0033 108.016 33.8889 107.999H83.2405C84.1261 108.016 85.0064 107.858 85.8311 107.535C86.6558 107.212 87.4087 106.729 88.0469 106.115C88.6851 105.501 89.196 104.767 89.5505 103.955C89.905 103.143 90.096 102.27 90.1128 101.384V74.2816L89.082 72.993C85.0631 69.0884 80.289 66.0457 75.0525 64.0515C69.8159 62.0574 64.2273 61.1537 58.6292 61.396Z" fill="#11740D"/>
</svg>
