<svg width="108" height="108" viewBox="0 0 108 108" fill="none" xmlns="http://www.w3.org/2000/svg">
<g clip-path="url(#clip0_1_58)">
<path d="M108 54C108 55.1935 107.526 56.3381 106.682 57.182C105.838 58.0259 104.693 58.5 103.5 58.5C102.307 58.5 101.162 58.0259 100.318 57.182C99.4741 56.3381 99 55.1935 99 54C98.9869 42.0693 94.2416 30.631 85.8053 22.1947C77.369 13.7584 65.9307 9.0131 54 9C52.8065 9 51.6619 8.52589 50.818 7.68198C49.9741 6.83807 49.5 5.69347 49.5 4.5C49.5 3.30653 49.9741 2.16193 50.818 1.31802C51.6619 0.474106 52.8065 0 54 0C68.3169 0.0154849 82.0431 5.70973 92.1667 15.8333C102.29 25.9569 107.985 39.6831 108 54ZM72 58.5C73.1935 58.5 74.3381 58.0259 75.182 57.182C76.0259 56.3381 76.5 55.1935 76.5 54C76.5 52.8065 76.0259 51.6619 75.182 50.818C74.3381 49.9741 73.1935 49.5 72 49.5H61.7535C60.9692 48.1519 59.8481 47.0308 58.5 46.2465V31.5C58.5 30.3065 58.0259 29.1619 57.182 28.318C56.3381 27.4741 55.1935 27 54 27C52.8065 27 51.6619 27.4741 50.818 28.318C49.9741 29.1619 49.5 30.3065 49.5 31.5V46.2465C48.3065 46.9337 47.2872 47.8865 46.521 49.0309C45.7549 50.1754 45.2624 51.4808 45.0819 52.8462C44.9013 54.2115 45.0375 55.6001 45.4798 56.9044C45.9221 58.2086 46.6587 59.3936 47.6325 60.3675C48.6064 61.3413 49.7914 62.0779 51.0956 62.5202C52.3999 62.9625 53.7885 63.0987 55.1538 62.9181C56.5192 62.7376 57.8246 62.2451 58.9691 61.479C60.1135 60.7128 61.0663 59.6935 61.7535 58.5H72ZM8.2215 30.528C7.33149 30.528 6.46146 30.7919 5.72144 31.2864C4.98141 31.7809 4.40464 32.4837 4.06404 33.3059C3.72345 34.1282 3.63433 35.033 3.80797 35.9059C3.9816 36.7788 4.41019 37.5806 5.03952 38.21C5.66886 38.8393 6.47068 39.2679 7.3436 39.4415C8.21651 39.6152 9.12131 39.5261 9.94358 39.1855C10.7658 38.8449 11.4686 38.2681 11.9631 37.5281C12.4576 36.788 12.7215 35.918 12.7215 35.028C12.7215 33.8345 12.2474 32.6899 11.4035 31.846C10.5596 31.0021 9.41498 30.528 8.2215 30.528ZM9 54C9 53.11 8.73608 52.24 8.24162 51.4999C7.74715 50.7599 7.04434 50.1831 6.22208 49.8425C5.39981 49.5019 4.49501 49.4128 3.6221 49.5865C2.74918 49.7601 1.94736 50.1887 1.31802 50.818C0.688685 51.4474 0.260102 52.2492 0.0864683 53.1221C-0.0871652 53.995 0.00194976 54.8998 0.342544 55.7221C0.683138 56.5443 1.25991 57.2471 1.99994 57.7416C2.73996 58.2361 3.60999 58.5 4.5 58.5C5.69348 58.5 6.83807 58.0259 7.68198 57.182C8.5259 56.3381 9 55.1935 9 54ZM54 99C53.11 99 52.24 99.2639 51.4999 99.7584C50.7599 100.253 50.1831 100.956 49.8425 101.778C49.5019 102.6 49.4128 103.505 49.5865 104.378C49.7601 105.251 50.1887 106.053 50.818 106.682C51.4474 107.311 52.2492 107.74 53.1221 107.914C53.995 108.087 54.8998 107.998 55.7221 107.657C56.5443 107.317 57.2471 106.74 57.7416 106C58.2361 105.26 58.5 104.39 58.5 103.5C58.5 102.307 58.0259 101.162 57.182 100.318C56.3381 99.4741 55.1935 99 54 99ZM18.9945 14.4315C18.1045 14.4315 17.2345 14.6954 16.4944 15.1899C15.7544 15.6844 15.1776 16.3872 14.837 17.2094C14.4965 18.0317 14.4073 18.9365 14.581 19.8094C14.7546 20.6823 15.1832 21.4841 15.8125 22.1135C16.4419 22.7428 17.2437 23.1714 18.1166 23.345C18.9895 23.5187 19.8943 23.4296 20.7166 23.089C21.5388 22.7484 22.2416 22.1716 22.7361 21.4316C23.2306 20.6915 23.4945 19.8215 23.4945 18.9315C23.4945 17.738 23.0204 16.5934 22.1765 15.7495C21.3326 14.9056 20.188 14.4315 18.9945 14.4315ZM35.0055 3.7845C34.1155 3.7845 33.2455 4.04842 32.5054 4.54289C31.7654 5.03735 31.1886 5.74016 30.848 6.56242C30.5075 7.38469 30.4183 8.28949 30.592 9.16241C30.7656 10.0353 31.1942 10.8371 31.8235 11.4665C32.4529 12.0958 33.2547 12.5244 34.1276 12.698C35.0005 12.8717 35.9053 12.7826 36.7276 12.442C37.5498 12.1014 38.2526 11.5246 38.7471 10.7846C39.2416 10.0445 39.5055 9.17452 39.5055 8.2845C39.5055 7.09103 39.0314 5.94643 38.1875 5.10252C37.3436 4.25861 36.199 3.7845 35.0055 3.7845ZM8.2215 68.472C7.33149 68.472 6.46146 68.7359 5.72144 69.2304C4.98141 69.7249 4.40464 70.4277 4.06404 71.2499C3.72345 72.0722 3.63433 72.977 3.80797 73.8499C3.9816 74.7228 4.41019 75.5246 5.03952 76.154C5.66886 76.7833 6.47068 77.2119 7.3436 77.3855C8.21651 77.5592 9.12131 77.4701 9.94358 77.1295C10.7658 76.7889 11.4686 76.2121 11.9631 75.4721C12.4576 74.732 12.7215 73.862 12.7215 72.972C12.7215 71.7785 12.2474 70.6339 11.4035 69.79C10.5596 68.9461 9.41498 68.472 8.2215 68.472ZM18.9945 84.5685C18.1045 84.5685 17.2345 84.8324 16.4944 85.3269C15.7544 85.8214 15.1776 86.5242 14.837 87.3464C14.4965 88.1687 14.4073 89.0735 14.581 89.9464C14.7546 90.8193 15.1832 91.6211 15.8125 92.2505C16.4419 92.8798 17.2437 93.3084 18.1166 93.482C18.9895 93.6557 19.8943 93.5666 20.7166 93.226C21.5388 92.8854 22.2416 92.3086 22.7361 91.5686C23.2306 90.8285 23.4945 89.9585 23.4945 89.0685C23.4945 87.875 23.0204 86.7304 22.1765 85.8865C21.3326 85.0426 20.188 84.5685 18.9945 84.5685ZM35.0055 95.2155C34.1155 95.2155 33.2455 95.4794 32.5054 95.9739C31.7654 96.4684 31.1886 97.1712 30.848 97.9934C30.5075 98.8157 30.4183 99.7205 30.592 100.593C30.7656 101.466 31.1942 102.268 31.8235 102.897C32.4529 103.527 33.2547 103.955 34.1276 104.129C35.0005 104.303 35.9053 104.214 36.7276 103.873C37.5498 103.532 38.2526 102.956 38.7471 102.216C39.2416 101.476 39.5055 100.606 39.5055 99.7155C39.5055 98.522 39.0314 97.3774 38.1875 96.5335C37.3436 95.6896 36.199 95.2155 35.0055 95.2155ZM99.7785 68.472C98.8885 68.472 98.0185 68.7359 97.2784 69.2304C96.5384 69.7249 95.9616 70.4277 95.621 71.2499C95.2804 72.0722 95.1913 72.977 95.365 73.8499C95.5386 74.7228 95.9672 75.5246 96.5965 76.154C97.2259 76.7833 98.0277 77.2119 98.9006 77.3855C99.7735 77.5592 100.678 77.4701 101.501 77.1295C102.323 76.7889 103.026 76.2121 103.52 75.4721C104.015 74.732 104.279 73.862 104.279 72.972C104.279 72.3811 104.162 71.7959 103.936 71.2499C103.71 70.704 103.378 70.2079 102.96 69.79C102.543 69.3722 102.047 69.0407 101.501 68.8145C100.955 68.5884 100.369 68.472 99.7785 68.472ZM89.0055 84.5685C88.1155 84.5685 87.2455 84.8324 86.5054 85.3269C85.7654 85.8214 85.1886 86.5242 84.848 87.3464C84.5074 88.1687 84.4183 89.0735 84.592 89.9464C84.7656 90.8193 85.1942 91.6211 85.8235 92.2505C86.4529 92.8798 87.2547 93.3084 88.1276 93.482C89.0005 93.6557 89.9053 93.5666 90.7276 93.226C91.5498 92.8854 92.2526 92.3086 92.7471 91.5686C93.2416 90.8285 93.5055 89.9585 93.5055 89.0685C93.5055 88.4775 93.3891 87.8924 93.163 87.3464C92.9368 86.8005 92.6053 86.3044 92.1875 85.8865C91.7696 85.4687 91.2735 85.1372 90.7276 84.911C90.1816 84.6849 89.5964 84.5685 89.0055 84.5685ZM72.9945 95.2155C72.1045 95.2155 71.2345 95.4794 70.4944 95.9739C69.7544 96.4684 69.1776 97.1712 68.837 97.9934C68.4964 98.8157 68.4073 99.7205 68.581 100.593C68.7546 101.466 69.1832 102.268 69.8125 102.897C70.4419 103.527 71.2437 103.955 72.1166 104.129C72.9895 104.303 73.8943 104.214 74.7166 103.873C75.5388 103.532 76.2416 102.956 76.7361 102.216C77.2306 101.476 77.4945 100.606 77.4945 99.7155C77.4945 99.1245 77.3781 98.5394 77.152 97.9934C76.9258 97.4475 76.5943 96.9514 76.1765 96.5335C75.7586 96.1157 75.2625 95.7842 74.7166 95.558C74.1706 95.3319 73.5854 95.2155 72.9945 95.2155Z" fill="#11740D"/>
</g>
<defs>
<clipPath id="clip0_1_58">
<rect width="108" height="108" fill="white"/>
</clipPath>
</defs>
</svg>
