<svg width="164" height="164" viewBox="0 0 164 164" fill="none" xmlns="http://www.w3.org/2000/svg">
<path d="M82 0C103.748 0 124.605 8.63926 139.983 24.0172C155.361 39.3952 164 60.2522 164 82C164 103.748 155.361 124.605 139.983 139.983C124.605 155.361 103.748 164 82 164C60.2522 164 39.3952 155.361 24.0172 139.983C8.63926 124.605 0 103.748 0 82C0 60.2522 8.63926 39.3952 24.0172 24.0172C39.3952 8.63926 60.2522 0 82 0ZM71.7851 98.1774L53.5694 79.95C52.9164 79.297 52.1411 78.779 51.2879 78.4255C50.4347 78.0721 49.5202 77.8902 48.5967 77.8902C47.6732 77.8902 46.7587 78.0721 45.9055 78.4255C45.0523 78.779 44.277 79.297 43.624 79.95C42.3052 81.2688 41.5642 83.0576 41.5642 84.9227C41.5642 86.7878 42.3052 88.5766 43.624 89.8954L66.8183 113.09C67.4695 113.746 68.2441 114.267 69.0976 114.622C69.9511 114.978 70.8665 115.161 71.791 115.161C72.7155 115.161 73.6309 114.978 74.4844 114.622C75.3379 114.267 76.1125 113.746 76.7637 113.09L124.792 65.0494C125.454 64.3991 125.98 63.6242 126.341 62.7694C126.702 61.9146 126.89 60.9969 126.894 60.0691C126.899 59.1413 126.719 58.2218 126.366 57.3637C126.014 56.5056 125.494 55.7258 124.839 55.0694C124.183 54.4129 123.404 53.8928 122.546 53.5389C121.688 53.1851 120.769 53.0046 119.841 53.0078C118.914 53.0111 117.996 53.1979 117.14 53.5577C116.285 53.9175 115.51 54.443 114.859 55.104L71.7851 98.1774Z" fill="#11740D"/>
</svg>
