<svg width="84" height="84" viewBox="0 0 84 84" fill="none" xmlns="http://www.w3.org/2000/svg">
<path d="M42 0C53.1391 0 63.822 4.42499 71.6985 12.3015C79.575 20.178 84 30.8609 84 42C84 53.1391 79.575 63.822 71.6985 71.6985C63.822 79.575 53.1391 84 42 84C30.8609 84 20.178 79.575 12.3015 71.6985C4.42499 63.822 0 53.1391 0 42C0 30.8609 4.42499 20.178 12.3015 12.3015C20.178 4.42499 30.8609 0 42 0ZM36.768 50.286L27.438 40.95C27.1035 40.6155 26.7064 40.3502 26.2694 40.1692C25.8324 39.9882 25.364 39.895 24.891 39.895C24.418 39.895 23.9496 39.9882 23.5126 40.1692C23.0756 40.3502 22.6785 40.6155 22.344 40.95C21.6685 41.6255 21.289 42.5417 21.289 43.497C21.289 44.4523 21.6685 45.3685 22.344 46.044L34.224 57.924C34.5575 58.2602 34.9543 58.527 35.3915 58.709C35.8286 58.8911 36.2975 58.9848 36.771 58.9848C37.2445 58.9848 37.7134 58.8911 38.1505 58.709C38.5877 58.527 38.9845 58.2602 39.318 57.924L63.918 33.318C64.2569 32.9849 64.5266 32.588 64.7114 32.1502C64.8962 31.7124 64.9924 31.2423 64.9946 30.7671C64.9969 30.2919 64.905 29.8209 64.7243 29.3814C64.5435 28.9419 64.2776 28.5425 63.9418 28.2063C63.6059 27.87 63.2069 27.6036 62.7676 27.4224C62.3282 27.2412 61.8574 27.1487 61.3822 27.1504C60.907 27.152 60.4368 27.2477 59.9987 27.432C59.5607 27.6163 59.1635 27.8854 58.83 28.224L36.768 50.286Z" fill="white"/>
</svg>
