<svg width="20" height="16" viewBox="0 0 20 16" fill="none" xmlns="http://www.w3.org/2000/svg">
<path d="M19.951 2.16895C19.8679 1.73839 19.6805 1.33145 19.407 0.989328C19.3515 0.9175 19.2934 0.8536 19.2299 0.788779C18.7434 0.28751 18.0667 0 17.3732 0H2.62672C1.92551 0 1.26602 0.280263 0.769727 0.78906C0.706914 0.85328 0.648672 0.91782 0.591016 0.99193C0.31875 1.33261 0.132148 1.73899 0.0510156 2.17015C0.0171094 2.33947 0 2.51492 0 2.6924V13.3078C0 13.6771 0.0732031 14.0368 0.21832 14.3786C0.343906 14.6822 0.534453 14.9701 0.76957 15.2109C0.828789 15.2714 0.887617 15.3271 0.95043 15.3814C1.42051 15.7804 2.01574 16 2.62672 16H17.3732C17.9881 16 18.5828 15.7796 19.0516 15.377C19.1143 15.325 19.1723 15.2705 19.2304 15.2109C19.4577 14.9782 19.6383 14.7109 19.7682 14.416L19.7853 14.374C19.9277 14.0386 20 13.6801 20 13.3079V2.6924C20 2.51724 19.9835 2.34063 19.951 2.16895ZM1.36027 1.71825C1.39742 1.66252 1.44484 1.6053 1.50535 1.54281C1.8057 1.23512 2.20402 1.0658 2.62668 1.0658H17.3732C17.7995 1.0658 18.198 1.2354 18.495 1.54341C18.5463 1.59654 18.5953 1.65551 18.638 1.71445L18.7508 1.86979L10.8797 8.90102C10.637 9.11907 10.3246 9.23906 9.99988 9.23906C9.67836 9.23906 9.36621 9.11935 9.12066 8.9013L1.25742 1.87179L1.36027 1.71825ZM1.04512 13.4016C1.04086 13.3727 1.03988 13.3405 1.03988 13.3078V2.91221L7.14809 8.37377L1.10152 13.7773L1.04512 13.4016ZM18.1601 14.7199C17.9237 14.8597 17.6514 14.9338 17.3732 14.9338H2.62672C2.34832 14.9338 2.07617 14.8597 1.83992 14.7199L1.59273 14.573L7.84023 8.99263L8.52492 9.60304C8.93563 9.96851 9.45937 10.17 9.99996 10.17C10.5425 10.17 11.0671 9.96851 11.4776 9.60304L12.162 8.99235L18.4073 14.5733L18.1601 14.7199ZM18.9598 13.3078C18.9598 13.34 18.9593 13.3718 18.9553 13.4001L18.9012 13.7793L12.852 8.37669L18.9598 2.91485V13.3078Z" fill="#11740D"/>
</svg>
