<svg width="16" height="16" viewBox="0 0 16 16" fill="none" xmlns="http://www.w3.org/2000/svg">
<path d="M1.30047 0.677961C-0.00300274 1.39094 -0.259039 3.61968 0.233025 5.43617C0.616295 6.85075 1.43113 8.74826 2.80513 10.5351C4.09772 12.2161 5.90105 13.7233 7.2761 14.5953C9.04183 15.7151 11.559 16.4268 12.8625 15.7138C13.5216 15.3533 14.5008 14.3683 14.5455 14.1915C14.5455 14.1915 13.9712 13.4447 13.8452 13.2809L11.9195 10.7767C11.7764 10.5906 10.8791 10.7607 10.4232 10.9785C9.80823 11.2724 9.24188 12.0609 9.24188 12.0609C8.82021 12.2663 8.46707 12.0616 7.72914 11.7752C6.82225 11.4233 5.80257 10.3298 4.99107 9.33934C4.24986 8.31047 3.48189 7.07925 3.47072 6.23735C3.46159 5.55227 3.38403 5.19682 3.77837 4.95589C3.77837 4.95589 4.86298 4.84133 5.43189 4.48764C5.85357 4.22539 6.40371 3.60369 6.2606 3.41761L4.33498 0.913391C4.20898 0.749516 3.63474 0.00278057 3.63474 0.00278057C3.42528 -0.034941 1.95955 0.317421 1.30047 0.677961Z" fill="#11740D"/>
<path d="M14.8851 7.79218C15.6224 5.2925 13.8706 2.73632 10.9091 1.99056L11.1591 1.23096C14.6242 2.0917 16.6732 5.08148 15.7983 8.00019L14.8851 7.79218Z" fill="#11740D"/>
<path d="M12.7594 7.75337C13.2063 5.86624 12.0816 3.9501 10.1819 3.36221L10.4358 2.46155C12.8467 3.18616 14.273 5.61608 13.6868 8.00001L12.7594 7.75337Z" fill="#11740D"/>
<path d="M10.6119 7.13551C10.7666 6.31881 10.2773 5.50788 9.45454 5.21757L9.71828 4.30774C11.0699 4.73865 11.8711 6.06641 11.575 7.38466L10.6119 7.13551Z" fill="#11740D"/>
</svg>
