<svg width="15" height="16" viewBox="0 0 15 16" fill="none" xmlns="http://www.w3.org/2000/svg">
<path d="M13.7212 0.141253C13.7212 0.141253 15.1088 -0.551318 14.9932 1.13064C14.9546 1.82322 14.6077 4.24722 14.3379 6.86912L13.4128 14.6358C13.4128 14.6358 13.3358 15.7736 12.6419 15.9715C11.9481 16.1694 10.9074 15.2789 10.7147 15.081C10.5605 14.9327 7.82386 12.7065 6.86022 11.6182C6.5904 11.3214 6.28204 10.7277 6.89875 10.0351L10.946 5.08823C11.4085 4.49458 11.871 3.10944 9.94379 4.7914L4.54754 9.49101C4.54754 9.49101 3.93082 9.98569 2.7745 9.54047L0.269079 8.55108C0.269079 8.55108 -0.655997 7.80905 0.92434 7.06697C4.77882 4.74189 9.51983 2.36736 13.7212 0.141253Z" fill="#11740D"/>
</svg>
