<svg width="16" height="16" viewBox="0 0 16 16" fill="none" xmlns="http://www.w3.org/2000/svg">
<path d="M13.0851 2.32004C12.3798 1.58147 11.5402 0.996018 10.6153 0.597729C9.69029 0.199441 8.69832 -0.00371846 7.69712 5.15221e-05C6.35869 0.00141152 5.044 0.36825 3.88484 1.06383C2.72568 1.7594 1.76272 2.75931 1.09236 3.9634C0.421995 5.16749 0.0677924 6.53354 0.0651946 7.92463C0.0626064 9.31583 0.411728 10.6832 1.0776 11.89L0 16L4.04099 14.9C5.15683 15.5452 6.41064 15.8891 7.6875 15.9C9.71732 15.9001 11.665 15.0668 13.1065 13.5816C14.548 12.0965 15.3668 10.0796 15.3846 7.97003C15.3779 6.91734 15.1712 5.87638 14.7766 4.90684C14.3821 3.9373 13.8072 3.05824 13.0851 2.32004ZM7.69712 14.53C6.55958 14.5308 5.44283 14.213 4.46433 13.61L4.23341 13.46L1.83769 14.12L2.4727 11.69L2.31876 11.44C1.50022 10.0667 1.19473 8.42903 1.46016 6.83724C1.7256 5.24549 2.54352 3.8102 3.75898 2.80327C4.97445 1.79633 6.50301 1.28771 8.05513 1.37374C9.60725 1.45976 11.0752 2.13446 12.1807 3.27004C13.3891 4.49822 14.0809 6.17354 14.105 7.93003C14.0898 9.68592 13.4079 11.3645 12.2078 12.6006C11.0078 13.8366 9.38664 14.5301 7.69712 14.53ZM11.1704 9.59003C10.978 9.49003 10.0447 9.01003 9.87155 8.95003C9.69837 8.89003 9.56367 8.85003 9.43859 9.05003C9.2504 9.31813 9.04796 9.57512 8.83244 9.82002C8.72661 9.96002 8.61115 9.97002 8.41872 9.82002C7.3216 9.36943 6.40756 8.53943 5.83057 7.47003C5.62852 7.12003 6.023 7.14003 6.38861 6.39004C6.41564 6.33594 6.42969 6.27594 6.42969 6.21504C6.42969 6.15414 6.41564 6.09414 6.38861 6.04004C6.38861 5.94003 5.95565 4.96003 5.8017 4.57003C5.64776 4.18004 5.49382 4.24004 5.36874 4.23004H4.99351C4.89628 4.23159 4.8005 4.2547 4.71256 4.29781C4.62462 4.34091 4.54655 4.40304 4.48357 4.48003C4.26769 4.69821 4.0993 4.96195 3.98976 5.25347C3.88022 5.54499 3.83208 5.85753 3.84856 6.17004C3.90889 6.91814 4.17995 7.63113 4.62789 8.22003C5.44783 9.49583 6.57151 10.5293 7.88955 11.22C8.58084 11.6394 9.38423 11.8148 10.1794 11.72C10.4442 11.6654 10.6951 11.5535 10.9155 11.3915C11.136 11.2296 11.3212 11.0212 11.4591 10.78C11.5869 10.4856 11.6271 10.1583 11.5745 9.84002C11.4879 9.74002 11.3629 9.69003 11.1704 9.59003Z" fill="#11740D"/>
</svg>
