<svg width="22" height="22" viewBox="0 0 22 22" fill="none" xmlns="http://www.w3.org/2000/svg">
<path d="M1.78814 0.932197C-0.00412876 1.91255 -0.356178 4.97707 0.320409 7.47474C0.847406 9.41979 1.9678 12.0289 3.85705 14.4858C5.63436 16.7971 8.11394 18.8695 10.0046 20.0686C12.4325 21.6083 15.8936 22.5869 17.6859 21.6065C18.5922 21.1108 19.9386 19.7563 20 19.5133C20 19.5133 19.2104 18.4865 19.0372 18.2612L16.3894 14.8179C16.1926 14.5621 14.9587 14.796 14.3318 15.0954C13.4863 15.4995 12.7076 16.5837 12.7076 16.5837C12.1278 16.8662 11.6422 16.5847 10.6276 16.1909C9.38059 15.707 7.97853 14.2034 6.86271 12.8416C5.84355 11.4269 4.7876 9.73397 4.77224 8.57635C4.75969 7.63436 4.65304 7.14562 5.19526 6.81436C5.19526 6.81436 6.68659 6.65682 7.46885 6.17051C8.04865 5.80992 8.8051 4.95507 8.60833 4.69921L5.9606 1.25591C5.78735 1.03058 4.99777 0.00382329 4.99777 0.00382329C4.70976 -0.0480439 2.69438 0.436454 1.78814 0.932197Z" fill="white"/>
<path d="M20.467 10.7141C21.4808 7.27701 19.072 3.76226 15 2.73683L15.3438 1.69238C20.1083 2.8759 22.9257 6.98686 21.7226 11.0001L20.467 10.7141Z" fill="white"/>
<path d="M17.5441 10.6608C18.1586 8.06598 16.6121 5.43129 14 4.62294L14.3492 3.38452C17.6642 4.38087 19.6254 7.722 18.8193 10.9999L17.5441 10.6608Z" fill="white"/>
<path d="M14.5914 9.81128C14.8041 8.68831 14.1313 7.57329 13 7.17411L13.3626 5.9231C15.2211 6.5156 16.3228 8.34127 15.9157 10.1539L14.5914 9.81128Z" fill="white"/>
</svg>
