<svg width="25" height="26" viewBox="0 0 25 26" fill="none" xmlns="http://www.w3.org/2000/svg">
<path d="M21.2633 3.77007C20.1171 2.56988 18.7528 1.61853 17.2498 0.97131C15.7467 0.324091 14.1348 -0.0060425 12.5078 8.37235e-05C10.3329 0.00229372 8.1965 0.598406 6.31287 1.72872C4.42924 2.85903 2.86442 4.48388 1.77508 6.44052C0.685741 8.39717 0.110163 10.617 0.105941 12.8775C0.101735 15.1382 0.669059 17.3602 1.75109 19.3213L0 26L6.5666 24.2125C8.37985 25.261 10.4173 25.8198 12.4922 25.8375C15.7906 25.8377 18.9556 24.4836 21.298 22.0701C23.6406 19.6568 24.9711 16.3794 25 12.9513C24.9891 11.2407 24.6532 9.54912 24.012 7.97362C23.3709 6.39811 22.4367 4.96964 21.2633 3.77007ZM12.5078 23.6113C10.6593 23.6126 8.84461 23.0961 7.25453 22.1163L6.8793 21.8725L2.98624 22.945L4.01814 18.9963L3.76798 18.59C2.43785 16.3584 1.94143 13.6972 2.37276 11.1105C2.8041 8.52392 4.13322 6.19157 6.10835 4.55531C8.08349 2.91904 10.5674 2.09252 13.0896 2.23232C15.6118 2.3721 17.9972 3.4685 19.7936 5.31381C21.7573 7.30961 22.8815 10.032 22.9206 12.8863C22.8959 15.7396 21.7878 18.4673 19.8377 20.476C17.8877 22.4845 15.2533 23.6114 12.5078 23.6113ZM18.152 15.5838C17.8393 15.4213 16.3227 14.6413 16.0413 14.5438C15.7599 14.4463 15.541 14.3813 15.3377 14.7063C15.0319 15.142 14.7029 15.5596 14.3527 15.9575C14.1807 16.185 13.9931 16.2013 13.6804 15.9575C11.8976 15.2253 10.4123 13.8766 9.47467 12.1388C9.14634 11.5701 9.78737 11.6026 10.3815 10.3838C10.4254 10.2959 10.4482 10.1984 10.4482 10.0994C10.4482 10.0005 10.4254 9.90298 10.3815 9.81506C10.3815 9.65255 9.67792 8.06005 9.42777 7.42631C9.17761 6.79256 8.92745 6.89006 8.7242 6.87381H8.11445C7.95646 6.87633 7.80081 6.91388 7.65791 6.98393C7.51501 7.05399 7.38815 7.15495 7.2858 7.28006C6.93499 7.6346 6.66137 8.06317 6.48336 8.53689C6.30536 9.01061 6.22713 9.51849 6.25391 10.0263C6.35194 11.242 6.79242 12.4006 7.52033 13.3576C8.85272 15.4307 10.6787 17.1101 12.8205 18.2325C13.9439 18.9141 15.2494 19.1991 16.5416 19.045C16.9719 18.9563 17.3795 18.7745 17.7376 18.5112C18.096 18.2481 18.397 17.9095 18.621 17.5175C18.8286 17.0391 18.894 16.5073 18.8086 15.99C18.6679 15.8275 18.4647 15.7463 18.152 15.5838Z" fill="white"/>
</svg>
